<?xml version="1.0" encoding="UTF-8" standalone="no"?>
<!DOCTYPE svg PUBLIC "-//W3C//DTD SVG 1.1//EN" "http://www.w3.org/Graphics/SVG/1.1/DTD/svg11.dtd">
<svg width="100%" height="100%" viewBox="0 0 868 473" version="1.1" xmlns="http://www.w3.org/2000/svg" xmlns:xlink="http://www.w3.org/1999/xlink" xml:space="preserve" xmlns:serif="http://www.serif.com/" style="fill-rule:evenodd;clip-rule:evenodd;stroke-linejoin:round;stroke-miterlimit:2;">
    <g transform="matrix(1,0,0,1,-4741.890865,-11102.481253)">
        <g transform="matrix(1,0,0,1.536791,0,-5702.534763)">
            <g transform="matrix(0.982097,0,0,0.625003,105.552805,3789.046048)">
                <path d="M5065.3,11904.504C5035.085,11917.786 5001.695,11925.161 4966.596,11925.161C4830.968,11925.161 4720.854,11815.047 4720.854,11679.419C4720.854,11543.79 4830.968,11433.677 4966.596,11433.677C5001.695,11433.677 5035.085,11441.051 5065.3,11454.333C4978.759,11492.377 4918.263,11578.889 4918.263,11679.419C4918.263,11779.949 4978.759,11866.46 5065.3,11904.504Z" style="fill:white;"/>
            </g>
        </g>
        <g transform="matrix(1,0,0,1.536791,0,-5702.534763)">
            <g transform="matrix(0.982097,0,0,0.625003,490.546586,3789.046048)">
                <path d="M4869.295,11453.722C4899.139,11440.825 4932.04,11433.677 4966.596,11433.677C5102.225,11433.677 5212.338,11543.79 5212.338,11679.419C5212.338,11815.047 5102.225,11925.161 4966.596,11925.161C4932.04,11925.161 4899.139,11918.012 4869.295,11905.115C4956.585,11867.393 5017.735,11780.491 5017.735,11679.419C5017.735,11578.347 4956.585,11491.444 4869.295,11453.722Z" style="fill:white;"/>
            </g>
        </g>
        <g transform="matrix(1,0,0,1.536791,0,-5702.534763)">
            <g transform="matrix(0.570694,0,0,0.371354,2222.562204,6878.114589)">
                <path d="M5347.964,11171.877C5391.512,11214.583 5418.45,11273.497 5418.45,11338.516C5418.45,11435.596 5358.395,11519.066 5272.668,11555.298C5243.357,11567.686 5211.046,11574.552 5177.108,11574.552C5142.637,11574.552 5109.845,11567.469 5080.171,11554.711C4995.178,11518.17 4935.765,11435.075 4935.765,11338.516C4935.765,11241.958 4995.178,11158.863 5080.171,11122.322C5109.845,11109.564 5142.637,11102.481 5177.108,11102.481C5211.046,11102.481 5243.357,11109.347 5272.668,11121.735C5277.911,11123.951 5283.058,11126.344 5288.102,11128.906L5118.422,11479.725L5347.964,11171.877Z" style="fill:white;"/>
            </g>
        </g>
    </g>
</svg>
